<svg width="20" height="20" viewBox="0 0 20 20" fill="none" xmlns="http://www.w3.org/2000/svg">
<path d="M17.708 0H2.292C1.028 0 0 1.028 0 2.292V17.708C0 18.972 1.028 20 2.292 20H17.708C18.972 20 20 18.972 20 17.708V2.292C20 1.028 18.972 0 17.708 0ZM18.5 17.708C18.5 18.145 18.145 18.5 17.708 18.5H2.292C1.855 18.5 1.5 18.145 1.5 17.708V4.418C1.5 3.981 1.854 3.628 2.29 3.626H17.71C18.146 3.626 18.5 3.981 18.5 4.416V17.71V17.708Z" fill="#5B7083"/>
<path d="M5.03195 8.03497C5.74163 8.03497 6.31695 7.45965 6.31695 6.74997C6.31695 6.04028 5.74163 5.46497 5.03195 5.46497C4.32226 5.46497 3.74695 6.04028 3.74695 6.74997C3.74695 7.45965 4.32226 8.03497 5.03195 8.03497Z" fill="#5B7083"/>
<path d="M5.03195 12.441C5.74163 12.441 6.31695 11.8657 6.31695 11.156C6.31695 10.4463 5.74163 9.87097 5.03195 9.87097C4.32226 9.87097 3.74695 10.4463 3.74695 11.156C3.74695 11.8657 4.32226 12.441 5.03195 12.441Z" fill="#5B7083"/>
<path d="M14.968 8.03497C15.6777 8.03497 16.253 7.45965 16.253 6.74997C16.253 6.04028 15.6777 5.46497 14.968 5.46497C14.2583 5.46497 13.683 6.04028 13.683 6.74997C13.683 7.45965 14.2583 8.03497 14.968 8.03497Z" fill="#5B7083"/>
<path d="M14.968 12.441C15.6777 12.441 16.253 11.8657 16.253 11.156C16.253 10.4463 15.6777 9.87097 14.968 9.87097C14.2583 9.87097 13.683 10.4463 13.683 11.156C13.683 11.8657 14.2583 12.441 14.968 12.441Z" fill="#5B7083"/>
<path d="M9.99997 8.03497C10.7097 8.03497 11.285 7.45965 11.285 6.74997C11.285 6.04028 10.7097 5.46497 9.99997 5.46497C9.29028 5.46497 8.71497 6.04028 8.71497 6.74997C8.71497 7.45965 9.29028 8.03497 9.99997 8.03497Z" fill="#5B7083"/>
<path d="M9.99997 12.441C10.7097 12.441 11.285 11.8657 11.285 11.156C11.285 10.4463 10.7097 9.87097 9.99997 9.87097C9.29028 9.87097 8.71497 10.4463 8.71497 11.156C8.71497 11.8657 9.29028 12.441 9.99997 12.441Z" fill="#5B7083"/>
<path d="M5.03195 16.771C5.74163 16.771 6.31695 16.1957 6.31695 15.486C6.31695 14.7764 5.74163 14.201 5.03195 14.201C4.32226 14.201 3.74695 14.7764 3.74695 15.486C3.74695 16.1957 4.32226 16.771 5.03195 16.771Z" fill="#5B7083"/>
<path d="M9.99997 16.771C10.7097 16.771 11.285 16.1957 11.285 15.486C11.285 14.7764 10.7097 14.201 9.99997 14.201C9.29028 14.201 8.71497 14.7764 8.71497 15.486C8.71497 16.1957 9.29028 16.771 9.99997 16.771Z" fill="#5B7083"/>
</svg>
